<svg id="Layer_1" data-name="Layer 1" xmlns="http://www.w3.org/2000/svg" viewBox="0 0 1641.04 701.78"><defs><style>.cls-1{fill:#f0ecf5;}</style></defs><path class="cls-1" d="M557.09,310.26a59.79,59.79,0,0,0-3.57-16.85,38.2,38.2,0,0,0-9.74-14.81,30.25,30.25,0,0,0-16.28-8,27.09,27.09,0,0,0-17.84,4,31.32,31.32,0,0,0-12,13.49,49.55,49.55,0,0,0-4.14,17c-.41,4.74-.42,9.49-.39,14.35l.1,84.09c.06,3.48.15,8.15.33,13.51l-.52.51-.41.39-.44.42-23.77,22.44C438,469.51,405.5,500,372.38,529.4c-18.87,16.8-34.58,30.32-49.47,42.57l-8.14,6.81c-13.76,11.49-28,23.37-42.12,35l-50.36,41.65c-7,5.73-12.88,10.09-18.34,13.71a37.33,37.33,0,0,1-6-4.54,27,27,0,0,1-7.58-11.35,45.77,45.77,0,0,1-2.73-14.34,53.65,53.65,0,0,1,1.65-14.82c.19-.81.39-1.64.56-2.49a87.36,87.36,0,0,0,2.43-14.43,58,58,0,0,0-1.75-17.92A97.36,97.36,0,0,0,184.36,573l-3.43-7.35-1.45-3.34a18.36,18.36,0,0,1-.79-3.05,16.71,16.71,0,0,1,2.44-11.84,18.38,18.38,0,0,1,1.91-2.76l.26-.34s.46-.59.8-1.14a7.56,7.56,0,0,0-2.86-10.33l-1.7-.9-1.39-.89a29.31,29.31,0,0,1-2.67-2.12,34.19,34.19,0,0,1-8.32-11.18,25.39,25.39,0,0,1-2.11-6.4,19.68,19.68,0,0,1-.11-6.4c.54-4.42,2.16-8.91,4.21-14.3l.46-1.15c.74-1.91,1.66-4.29,2.53-6.77a16.3,16.3,0,0,0,.9-6.1,14.7,14.7,0,0,0-1.9-6.45,22.35,22.35,0,0,0-7.93-7.55,54.62,54.62,0,0,0-8.28-3.94c-3.6-1.41-7.25-2.55-10.37-3.5l-.79-.25c-1.57-.49-3.11-1-4.59-1.48l-.25-.08c-1.12-.38-2.18-.74-3.05-1.14-.48-.22-1.12-.56-1.89-1l-.91-.49-.3-.15a50.05,50.05,0,0,1-6-4.09,29.44,29.44,0,0,1-8.5-10.61,25.22,25.22,0,0,1-2.17-13c.7-7.94,4.41-16.45,11.67-26.79,4.85-6.82,10.47-13.28,15.9-19.53.95-1.11,1.9-2.2,2.86-3.3l1.55-1.78a4,4,0,0,0,.32-.38c2.75-3.54,5.67-7.1,8.77-10.87l1.1-1.36c16.34-20,34.14-41.4,38.58-67.63,2.24-13.28,1.31-26.82.2-40.16a328.37,328.37,0,0,1,1.66-68c.47-3.88,1-7.83,1.53-11.65l.52-3.73c.46-3.07,1-6.16,1.52-9.14l1.06-6a293.18,293.18,0,0,1,7.51-29.86,338.1,338.1,0,0,1,23.63-57c10.72-20.42,21.57-37.56,33.19-52.45.28-.47,3.11-4.54,4.63-6.74l1.12-1.61a.51.51,0,0,0-.1-.67.5.5,0,0,0-.68,0c-.68.7-6.48,7.35-6.73,7.63-12.28,14.52-23.9,31.39-35.53,51.56-23.9,41.5-37.77,87.35-44,134.73-2,15.17-3.49,30.35-2.37,45.63,1.08,14.65,4.39,31.16.76,45.68-4.24,24.22-20.82,43.53-35.92,62l-2,2.49c-2.35,2.85-5.1,6.22-7.67,9.54l-.08.11-2.93,3.42-1.53,1.78a255.13,255.13,0,0,0-16.56,20.53,95.21,95.21,0,0,0-8.83,15A52.12,52.12,0,0,0,104.43,422a36.83,36.83,0,0,0,3.26,18.84,40.85,40.85,0,0,0,11.77,14.69A53.13,53.13,0,0,0,127,460.7l.64.35.72.38c.77.43,1.62.9,2.73,1.41,1.37.61,2.62,1.05,3.84,1.47l.53.19c1.83.58,3.64,1.14,5.4,1.68,3.75,1.13,6.87,2.12,9.89,3.28a38.43,38.43,0,0,1,6.47,3.07,10.72,10.72,0,0,1,3.91,3.39c.5.94.63,1.6.09,3.24s-1.19,3.38-1.87,5.17l-.95,2.46c-2,5.21-4,10.6-4.79,16.82a32.6,32.6,0,0,0,.25,9.89,40,40,0,0,0,3,9.08A46.39,46.39,0,0,0,168,537.43c.5.43,1,.84,1.51,1.24l.16.13c.68.53,1.38,1,2.12,1.55l.38.24c-.25.38-.49.76-.71,1.13a28.45,28.45,0,0,0-3.8,19.52,28.76,28.76,0,0,0,1.35,4.94l.91,2.21,4.35,9.33A85.91,85.91,0,0,1,179.89,592a46,46,0,0,1,1.42,14.49,81.17,81.17,0,0,1-2.18,13l-.47,2.19c-.67,3.09-1.2,5.68-1.54,8.56a59.18,59.18,0,0,0-.35,9,57.26,57.26,0,0,0,3.42,17.58,37.75,37.75,0,0,0,10.46,15.53c1.06,1,2.17,1.91,3.3,2.79a121.48,121.48,0,0,1-26.42,10.68,98.75,98.75,0,0,1-30.64,3.65,67.54,67.54,0,0,1-14.88-2.4l-2.78-.82-.18-.12-3.41-1.81a15,15,0,0,1-2-1.21l-.17-.11c-.33-.22-.67-.45-1-.62l-.19-.13a26.82,26.82,0,0,1-3-2A68.9,68.9,0,0,1,98.3,670.09a71.07,71.07,0,0,1-8.47-12.41,63.69,63.69,0,0,1-5.1-14,51.27,51.27,0,0,1-1-14.69,15.18,15.18,0,0,1,.23-1.95l.11-.69c.06-.32.11-.64.15-.93a19.55,19.55,0,0,1,.69-3.49l1-3.6.47-1.58c.27-.88.55-1.8.75-2.69A61.1,61.1,0,0,0,89,596.27a62.14,62.14,0,0,0-3.32-17.56,100.18,100.18,0,0,0-5.3-12.15c-.54-1.06-1.12-2.21-1.66-3.38a55.66,55.66,0,0,1-2.82-6.78,19.77,19.77,0,0,1-1-6.19,14.55,14.55,0,0,1,1.37-5.43c.16-.26.31-.53.45-.8l.28-.51A9.56,9.56,0,0,1,78,542l1.37-1.86a7.92,7.92,0,0,0,.82-1.23,7.53,7.53,0,0,0,.86-3.94,7.68,7.68,0,0,0-4.08-6.42l-1.59-.88a22.11,22.11,0,0,1-2.82-1.86,34.44,34.44,0,0,1-5-4.78,29.9,29.9,0,0,1-6.33-12,19.62,19.62,0,0,1-.48-6.31A35.26,35.26,0,0,1,62,495.8c1-3.45,2.24-6.9,3.69-10.75l2.3-6.31c.16-.48.33-1.12.49-1.76l.27-1.11a15,15,0,0,0-.33-6.59,14.63,14.63,0,0,0-3.13-5.75A21.33,21.33,0,0,0,61,459.77a36.74,36.74,0,0,0-8.82-4.08c-.65-.22-1.3-.4-1.93-.57l-3-.88c-1.16-.31-2.09-.6-2.93-.9-11.82-3.7-20.23-8.33-25.69-14.16a24.67,24.67,0,0,1-6.18-11.48,32.49,32.49,0,0,1,.34-13.59c1.84-7.95,6.23-16.41,13.82-26.63,6.08-8.14,12.93-15.59,20.18-23.47l.75-.81c.58-.58,1.12-1.22,1.68-1.83s1.15-1.26,1.72-1.9l1.75-2,1.77-2c.6-.68,1.2-1.37,1.79-2.06s1.21-1.4,1.81-2.11,1.22-1.44,1.82-2.17L61.71,347c.61-.75,1.22-1.51,1.82-2.27s1.22-1.54,1.82-2.32,1.22-1.58,1.82-2.37,1.21-1.61,1.8-2.42,1.2-1.64,1.79-2.47,1.19-1.67,1.77-2.52,1.17-1.7,1.74-2.56,1.15-1.74,1.71-2.61c6.18-9.59,12.22-19.94,15.53-30.91,4.26-14.14,2.67-29.21,1.84-43.74-.89-15.51-2.07-31-1.54-46.56A336.37,336.37,0,0,1,130.33,61.58C141,41.24,151.86,24.09,163.52,9.13c.29-.46,3-4.35,4.57-6.67L169.24.78a.5.5,0,0,0-.1-.68.51.51,0,0,0-.68.06c-.86,1-6.69,7.62-6.7,7.63-12.33,14.61-23.95,31.47-35.53,51.55a345.88,345.88,0,0,0-26.29,57.08,300.38,300.38,0,0,0-8.87,30.32l-.21,1c-.32,1.49-.65,3-1,4.49-.63,2.91-1.42,6.55-2.07,10-1.09,6.07-1.94,11-2.69,15.46-3,18.38-6.35,42.6-5.11,67,.23,4.05.61,8.21,1,12.25.93,10.19,2,20.24.16,30.4A68.61,68.61,0,0,1,73,309.22,237.9,237.9,0,0,1,59.91,329.7q-4.72,6.48-9.9,12.63c-3.14,3.76-6.39,7.43-9.69,11.06l-1.57,1.71-1.12,1.22a312.41,312.41,0,0,0-20.58,24c-6.54,8.95-13,18.91-15.85,31.15a43.76,43.76,0,0,0-.34,18.76,36,36,0,0,0,9.08,17,54.27,54.27,0,0,0,14.7,10.81,96.72,96.72,0,0,0,16.1,6.48c1,.32,1.95.6,2.88.86l3.82,1.1c.39.1.76.19,1.15.33a24.63,24.63,0,0,1,6,2.68,5.92,5.92,0,0,1,2.7,3,2.81,2.81,0,0,1,0,1.08l0,.25a2.66,2.66,0,0,0-.1.47c0,.19-.1.37-.18.64l-.66,1.83c-.52,1.46-1,2.95-1.61,4.46-1.28,3.44-2.73,7.34-3.85,11.38a48.1,48.1,0,0,0-1.7,9.13,31.77,31.77,0,0,0,.82,9.91c1.72,7.08,5.66,13.77,11.72,19.88a28.33,28.33,0,0,0,2.54,2.23,44.62,44.62,0,0,0,3.64,2.61c-.41.65-.78,1.33-1.14,2l-.31.58-.39.72a26.56,26.56,0,0,0-2.51,10.12,31.45,31.45,0,0,0,1.52,10,68.36,68.36,0,0,0,3.44,8.25c.56,1.21,1.15,2.4,1.73,3.55A83.74,83.74,0,0,1,75,582.35a51.06,51.06,0,0,1,2.78,14.43,49.06,49.06,0,0,1-1.43,14.59c-.21.87-.47,1.73-.75,2.65l-1.46,5.2a27.44,27.44,0,0,0-.9,4.54c0,.29-.08.59-.13.89l-.08.52a19.33,19.33,0,0,0-.37,3,64,64,0,0,0,1.3,17.92,75.58,75.58,0,0,0,6.17,16.64,81.19,81.19,0,0,0,10,14.5A77.08,77.08,0,0,0,102.93,689a26.91,26.91,0,0,0,2.73,1.91l1,.62c.29.18.57.37.85.56l.47.31a25.7,25.7,0,0,0,2.42,1.44l4.54,2.36a8.45,8.45,0,0,0,1,.36l3.13.95a78.66,78.66,0,0,0,17.32,2.73c1.31.07,2.73.1,4.34.1a112.87,112.87,0,0,0,29.68-4.22,131.94,131.94,0,0,0,31.3-13.2c.88-.52,1.76-1.06,2.64-1.6.57.26,1.13.5,1.68.71a75.69,75.69,0,0,0,16.83,4.76c2.23.42,4.49.64,6.61.83l1.07.11,1,.09L234,688c2,.09,4.1.18,6.1.09a90.36,90.36,0,0,0,17.23-1.77,126,126,0,0,0,32-11.61c20.77-10.76,39-26.29,53.6-38.78l2.14-1.85c7.8-6.68,15.17-13,23-19.25,8.89-7.15,17.17-14,25.31-20.89C409.79,580,426.17,565.14,442,549.83c7.72-7.43,15.57-15.23,23.34-23.22,7.61-7.78,15.48-15.83,21.74-25.35a84.07,84.07,0,0,0,12.57-31.76c1.76-9.58,2.48-19.88,2.33-33.38-.08-6.38-.31-12.56-.48-16.72l1.92-1.83,2.09-2,1.66-1.59c4.47-4.29,9.09-8.73,13.53-13.26,9.26-9.51,16-17.71,21.14-25.82a94.24,94.24,0,0,0,12.88-31.15,117.38,117.38,0,0,0,2.65-25C557.39,316,557.29,313.1,557.09,310.26ZM493.34,453.49a130.34,130.34,0,0,1-1.95,14.42,74.7,74.7,0,0,1-11.56,28.53c-5.9,8.79-13.55,16.46-20.95,23.88-7.93,8-15.56,15.43-23.31,22.76-15.06,14.27-31,28.42-48.63,43.24-8.25,6.93-16.73,13.87-25.2,20.63s-17,14-24.53,20.44l-.71.61c-17.6,14.94-33.65,28.07-51.95,37.46A116.65,116.65,0,0,1,255.23,676a77.53,77.53,0,0,1-15.3,1.51c-1.8.08-3.64,0-5.43-.1l-2.2-.12-2.13-.22a48.25,48.25,0,0,1-5.53-.75,63,63,0,0,1-9.43-2.26c4.08-2.93,8.45-6.33,13.67-10.63l50.14-42c16.08-13.45,32.14-27.11,50-42.28,14.33-12,29.53-25.33,49.28-43.15,32.59-29.53,65.08-60.57,95.34-89.71l20.22-19.47c.09,3.66.14,6.67.14,9.4C494,442.65,493.75,448.31,493.34,453.49Zm56.71-123a112,112,0,0,1-1.92,11.86A87.07,87.07,0,0,1,536,371.2c-5,7.76-11.26,15.34-20.33,24.59-4.56,4.62-9.3,9.13-14.53,14.08l-.19-6.46-.87-81.69v-2c-.06-5.22-.07-9.57.31-14a41.92,41.92,0,0,1,3.5-14.67,24.24,24.24,0,0,1,9.32-10.61,21.35,21.35,0,0,1,11.06-3.25,18.54,18.54,0,0,1,2.35.15,23.42,23.42,0,0,1,12.59,6.21c8.23,7.49,10.65,19,11.23,27.29.16,2.37.24,4.8.24,7.45A115.91,115.91,0,0,1,550.05,330.44Z"/><path class="cls-1" d="M534.77,578.31c22.38,0,39.05,16.38,39.05,42.06s-16.67,42.36-39.05,42.36c-16.38,0-27.79-9-32.6-19.23v56.79H491.81V579.51h10.36v18C507,587.18,518.39,578.31,534.77,578.31Zm-2.11,9.16c-16.67,0-30.49,12.63-30.49,33s13.82,33.05,30.49,33.05c17.28,0,30.49-12.47,30.49-33.2S549.94,587.47,532.66,587.47Z"/><path class="cls-1" d="M619.23,662.73c-18.62,0-31.69-9.31-33-24.33H597c.9,9,8.72,15.47,22.08,15.47,11.72,0,18.33-6.31,18.33-14.12,0-20.28-49.27-8.42-49.27-39.2,0-12.17,11.57-22.24,28.84-22.24,17.57,0,29.14,9.32,30,25.09H636.51c-.6-9.16-7.36-16.07-19.83-16.07-11,0-17.88,5.86-17.88,13.07,0,22.22,48.52,10.36,49,39.35C647.77,653,636.21,662.73,619.23,662.73Z"/><path class="cls-1" d="M722.17,579.51H733L684.31,700.13h-11l15.92-39-33.65-81.57h11.57l27.94,70Z"/><path class="cls-1" d="M780,578.31c20.57,0,33.94,11,37.7,27.94H806.47c-2.7-11.71-12.61-18.92-26.43-18.92-16.07,0-29.14,11-29.14,33.19S764,653.87,780,653.87c13.82,0,23.58-7.07,26.43-19.08h11.27c-3.76,16.38-17.13,27.94-37.7,27.94-23.13,0-39.81-16.22-39.81-42.21S756.91,578.31,780,578.31Z"/><path class="cls-1" d="M834.91,550.38h10.52v43.11C850.68,583.43,861.5,578,874,578c18.17,0,32.74,11.41,32.74,35.44v48.07H896.35V614.66c0-18.17-9.92-27.48-24.94-27.48-15.32,0-26,9.61-26,29.59v44.76H834.91Z"/><path class="cls-1" d="M963.69,662.73c-23.13,0-40.71-16.22-40.71-42.21s18-42.21,41-42.21,41,16.07,41,42.21S986.82,662.73,963.69,662.73Zm0-9.16c15.47,0,30.49-10.52,30.49-33.05s-14.72-33-30.34-33-30.19,10.52-30.19,33S948.07,653.57,963.69,653.57Z"/><path class="cls-1" d="M1022,550.38h10.52V661.53H1022Z"/><path class="cls-1" d="M1090.08,662.73c-23.13,0-40.7-16.22-40.7-42.21s18-42.21,41-42.21,41,16.07,41,42.21S1113.21,662.73,1090.08,662.73Zm0-9.16c15.47,0,30.49-10.52,30.49-33.05s-14.72-33-30.34-33S1060,598,1060,620.52,1074.46,653.57,1090.08,653.57Z"/><path class="cls-1" d="M1182.81,578.31c16.22,0,27.79,8.71,32.45,19.08V579.51h10.51v84.12c0,23-15.77,38.15-38.3,38.15-21.18,0-35.9-10.81-39.21-27.93h10.37c3.45,11.11,13.82,18.77,28.84,18.77,15.62,0,27.79-10.36,27.79-29V643.35c-4.81,10.52-16.23,19.38-32.45,19.38-22.53,0-39.2-16.67-39.2-42.36S1160.28,578.31,1182.81,578.31Zm2,9.16c-17.27,0-30.49,12-30.49,32.9s13.22,33.2,30.49,33.2c16.83,0,30.5-12.62,30.5-33.05S1201.59,587.47,1184.76,587.47Z"/><path class="cls-1" d="M1304.38,579.51h10.81l-48.66,120.62h-11l15.92-39-33.64-81.57h11.56l27.94,70Z"/><path class="cls-1" d="M1359.88,576.72c20.73,0,34.7,10.81,39.2,29.44H1376.4c-2.4-7.06-8-11.57-16.67-11.57-11.72,0-19.53,8.87-19.53,25.08s7.81,24.94,19.53,24.94c8.71,0,14.12-3.91,16.67-11.42h22.68c-4.5,17.73-18.47,29.45-39.2,29.45-24,0-41.16-16.83-41.16-43S1335.85,576.72,1359.88,576.72Z"/><path class="cls-1" d="M1442.69,576.72c13.37,0,22.53,6.3,27.49,13.21V578.07h21.18v83.21h-21.18V649.11c-5,7.22-14.42,13.53-27.64,13.53-21,0-37.85-17.28-37.85-43.26S1421.51,576.72,1442.69,576.72Zm5.41,18.47c-11.27,0-21.93,8.41-21.93,24.19s10.66,24.78,21.93,24.78c11.56,0,22.08-8.71,22.08-24.49S1459.66,595.19,1448.1,595.19Z"/><path class="cls-1" d="M1528.51,661.28h-21V578.07h21V591c5.26-8.56,14-14.11,25.54-14.11v22.07h-5.56c-12.47,0-20,4.81-20,20.88Z"/><path class="cls-1" d="M1600,662.64c-24.19,0-41.76-16.83-41.76-43s17.13-42.95,41.76-42.95c24,0,41,16.36,41,41.16a48,48,0,0,1-.6,8.1h-60.83c1.05,12.32,9.46,19.23,20,19.23,9,0,14-4.51,16.67-10.06h22.68C1634.44,650.47,1620.62,662.64,1600,662.64Zm-20.28-50.78h39.51c-.31-11-9-17.87-19.83-17.87C1589.37,594,1581.41,600.45,1579.76,611.86Z"/></svg>